<?xml version="1.0" standalone="no"?>
<!DOCTYPE svg PUBLIC "-//W3C//DTD SVG 20010904//EN"
 "http://www.w3.org/TR/2001/REC-SVG-20010904/DTD/svg10.dtd">
<svg version="1.0" xmlns="http://www.w3.org/2000/svg"
 width="559.000000pt" height="447.000000pt" viewBox="0 0 559.000000 447.000000"
 preserveAspectRatio="xMidYMid meet">

<g transform="translate(0.000000,447.000000) scale(0.100000,-0.100000)"
fill="#000000" stroke="none">
<path d="M2690 3249 c-91 -77 -288 -241 -437 -367 l-273 -227 0 -792 0 -793
50 0 50 0 2 767 3 768 135 113 c322 271 522 437 531 440 5 2 9 -396 9 -1042
l0 -1046 45 0 c27 0 48 5 50 12 3 7 4 529 3 1159 l-3 1146 -165 -138z"/>
<path d="M3018 3318 c-2 -18 -2 -531 0 -1140 l2 -1108 50 0 50 0 0 1098 0
1097 -49 43 -50 42 -3 -32z"/>
<path d="M3262 2108 l3 -1033 52 0 53 0 0 989 0 989 -42 36 c-22 20 -47 40
-55 44 -11 7 -13 -160 -11 -1025z"/>
<path d="M3510 2003 l0 -928 50 -2 50 -2 0 893 0 893 -37 29 c-21 17 -44 34
-50 38 -10 6 -13 -181 -13 -921z"/>
</g>
</svg>
